<svg xmlns="http://www.w3.org/2000/svg" viewBox="0 0 900 600" height="600" width="900"><g xmlns="http://www.w3.org/2000/svg" transform="matrix(-1 0 0 -1 900 600)"><path d="M0 73L90 49L180 49L270 49L360 73L450 43L540 43L630 61L720 67L810 55L900 49L900 0L810 0L720 0L630 0L540 0L450 0L360 0L270 0L180 0L90 0L0 0Z" fill="#add8e6"></path><path d="M0 193L90 175L180 115L270 121L360 199L450 133L540 139L630 133L720 181L810 151L900 163L900 47L810 53L720 65L630 59L540 41L450 41L360 71L270 47L180 47L90 47L0 71Z" fill="#85b6cc"></path><path d="M0 253L90 229L180 205L270 217L360 271L450 205L540 193L630 217L720 247L810 241L900 229L900 161L810 149L720 179L630 131L540 137L450 131L360 197L270 119L180 113L90 173L0 191Z" fill="#6094b3"></path><path d="M0 307L90 289L180 277L270 295L360 319L450 271L540 241L630 277L720 313L810 313L900 277L900 227L810 239L720 245L630 215L540 191L450 203L360 269L270 215L180 203L90 227L0 251Z" fill="#3f729a"></path><path d="M0 439L90 409L180 415L270 481L360 463L450 403L540 463L630 481L720 493L810 457L900 385L900 275L810 311L720 311L630 275L540 239L450 269L360 317L270 293L180 275L90 287L0 305Z" fill="#205281"></path><path d="M0 601L90 601L180 601L270 601L360 601L450 601L540 601L630 601L720 601L810 601L900 601L900 383L810 455L720 491L630 479L540 461L450 401L360 461L270 479L180 413L90 407L0 437Z" fill="#003366"></path></g></svg>